<?xml version="1.0" encoding="UTF-8"?>
<svg xmlns="http://www.w3.org/2000/svg" xmlns:xlink="http://www.w3.org/1999/xlink" width="3002" height="3002" viewBox="0 0 3002 3002">
<path fill-rule="evenodd" fill="rgb(100%, 100%, 100%)" fill-opacity="1" d="M 0.5 0.5 L 3001.5 0.5 L 3001.5 3001.5 L 0.5 3001.5 L 0.5 0.5 "/>
<path fill-rule="nonzero" fill="rgb(0%, 0%, 0%)" fill-opacity="1" d="M 1124.910156 1877.058594 C 1038.75 1790.898438 964.980469 1695.929688 903.355469 1593.789062 C 840.289062 1489.261719 789.960938 1377.101562 752.089844 1259.101562 C 749.410156 1250.738281 751.832031 1241.960938 757.636719 1236.148438 L 757.589844 1236.101562 L 986.710938 1006.980469 C 995.582031 998.109375 1009.96875 998.109375 1018.851562 1006.980469 L 1273.441406 1261.578125 C 1282.320312 1270.449219 1282.320312 1284.851562 1273.441406 1293.71875 L 1117.019531 1450.140625 C 1167.078125 1543.789062 1229.988281 1625.28125 1303.300781 1696.859375 C 1376.730469 1768.558594 1460.558594 1830.308594 1552.371094 1884.378906 L 1708.238281 1728.519531 C 1717.109375 1719.648438 1731.5 1719.648438 1740.371094 1728.519531 L 1995 1983.140625 C 2003.871094 1992.011719 2003.871094 2006.40625 1995 2015.277344 L 1765.910156 2244.363281 C 1759.210938 2251.058594 1749.371094 2252.699219 1741.140625 2249.292969 C 1623.78125 2211.5 1512.210938 2161.371094 1408.199219 2098.628906 C 1306.039062 2037.003906 1211.070312 1963.230469 1124.910156 1877.058594 Z M 942.242188 1570.351562 C 1001.929688 1669.269531 1073.449219 1761.328125 1157.050781 1844.921875 C 1240.648438 1928.539062 1332.699219 2000.058594 1431.640625 2059.738281 C 1529.449219 2118.738281 1633.929688 2166.230469 1743.570312 2202.429688 L 1946.789062 1999.210938 L 1724.308594 1776.71875 L 1572.199219 1928.820312 L 1572.140625 1928.75 C 1565.078125 1935.808594 1553.921875 1937.570312 1544.859375 1932.371094 C 1443.828125 1874.320312 1351.789062 1807.558594 1271.691406 1729.359375 C 1191.769531 1651.320312 1123.578125 1561.78125 1070.058594 1458.058594 C 1064.429688 1449.269531 1065.449219 1437.441406 1073.140625 1429.75 L 1225.238281 1277.648438 L 1002.78125 1055.191406 L 799.527344 1258.441406 C 835.738281 1368.070312 883.234375 1472.550781 942.242188 1570.351562 Z M 2250.738281 1375.148438 C 2252.609375 1387.550781 2244.058594 1399.121094 2231.660156 1400.980469 C 2219.261719 1402.839844 2207.691406 1394.300781 2205.828125 1381.898438 C 2194.699219 1309.460938 2172.230469 1238.460938 2138.421875 1171.800781 C 2105.839844 1107.550781 2062.601562 1047.171875 2008.699219 993.269531 C 1954.800781 939.371094 1894.421875 896.128906 1830.179688 863.550781 C 1763.519531 829.75 1692.519531 807.269531 1620.078125 796.160156 C 1607.679688 794.289062 1599.140625 782.71875 1601 770.320312 C 1602.859375 757.921875 1614.429688 749.378906 1626.839844 751.238281 C 1703.898438 763.070312 1779.511719 787.011719 1850.601562 823.070312 C 1919.28125 857.890625 1983.628906 903.929688 2040.839844 961.140625 C 2098.050781 1018.351562 2144.078125 1082.699219 2178.910156 1151.371094 C 2214.960938 1222.460938 2238.898438 1298.089844 2250.738281 1375.148438 Z M 1563.519531 1162.308594 C 1551.121094 1160.449219 1542.570312 1148.878906 1544.429688 1136.480469 C 1546.300781 1124.078125 1557.871094 1115.53125 1570.269531 1117.398438 C 1609.058594 1123.359375 1647.160156 1135.429688 1682.980469 1153.589844 C 1717.488281 1171.089844 1749.890625 1194.28125 1778.75 1223.128906 L 1778.859375 1223.238281 C 1807.699219 1252.101562 1830.878906 1284.480469 1848.359375 1318.960938 C 1866.539062 1354.789062 1878.609375 1392.898438 1884.578125 1431.699219 C 1886.441406 1444.101562 1877.898438 1455.671875 1865.5 1457.53125 C 1853.089844 1459.398438 1841.519531 1450.851562 1839.660156 1438.449219 C 1834.410156 1404.28125 1823.808594 1370.789062 1807.878906 1339.378906 C 1792.5 1309.050781 1772.128906 1280.589844 1746.800781 1255.269531 L 1746.710938 1255.179688 C 1721.371094 1229.839844 1692.910156 1209.460938 1662.558594 1194.078125 C 1631.160156 1178.160156 1597.679688 1167.558594 1563.519531 1162.308594 "/>
</svg>
