<?xml version="1.0" encoding="UTF-8"?>
<svg xmlns="http://www.w3.org/2000/svg" xmlns:xlink="http://www.w3.org/1999/xlink" width="3883" height="3882" viewBox="0 0 3883 3882">
<path fill-rule="nonzero" fill="rgb(100%, 100%, 100%)" fill-opacity="1" d="M 0.761719 0.171875 L 3882.488281 0.171875 C 3882.488281 1294.078125 3882.488281 2587.988281 3882.488281 3881.898438 C 2588.578125 3881.898438 1294.671875 3881.898438 0.761719 3881.898438 C 0.761719 2587.988281 0.761719 1294.078125 0.761719 0.171875 "/>
<path fill-rule="nonzero" fill="rgb(8.227539%, 20.776367%, 30.200195%)" fill-opacity="1" d="M 899.738281 1243.621094 L 3031.5 1243.621094 L 2180.019531 2076.238281 L 1743.308594 2075.78125 Z M 799.023438 1330.96875 L 1488.71875 2011.390625 L 799.011719 2656.121094 C 799.011719 2214.398438 799.011719 1772.691406 799.011719 1330.96875 Z M 3134.320312 1329.640625 L 3134.320312 2664.609375 L 2435.761719 2012.871094 Z M 1578.929688 2100.371094 L 1675.589844 2195.730469 C 1687.460938 2204.601562 1700.871094 2209.109375 1715.820312 2209.269531 L 2207.210938 2209.789062 C 2225.25 2209.550781 2240.808594 2203.199219 2253.890625 2190.761719 L 2345.160156 2101.488281 L 3031.050781 2741.421875 L 3031.03125 2741.421875 C 2318.410156 2741.421875 1605.789062 2741.421875 893.15625 2741.421875 Z M 3199.46875 1120.011719 C 3198.269531 1120.011719 3197.109375 1120.089844 3196 1120.25 L 737.328125 1120.25 L 733.253906 1120.390625 C 696.019531 1127.75 676.816406 1148.269531 675.648438 1181.941406 L 675.648438 2803.101562 C 677.480469 2827.070312 686.636719 2844.171875 703.109375 2854.421875 C 714.984375 2861.378906 725.609375 2864.859375 734.984375 2864.859375 C 735.773438 2864.859375 736.554688 2864.839844 737.328125 2864.789062 L 3196 2864.789062 C 3233.589844 2861.261719 3254.148438 2840.691406 3257.679688 2803.101562 L 3257.679688 1181.941406 C 3259.21875 1166.199219 3251.21875 1149.929688 3233.691406 1133.109375 C 3219.75 1124.378906 3208.351562 1120.011719 3199.46875 1120.011719 Z M 3199.46875 1120.011719 "/>
</svg>
